<mxfile host="app.diagrams.net" modified="2021-01-19T05:52:09.125Z" agent="5.0 (Macintosh; Intel Mac OS X 11_1_0) AppleWebKit/537.36 (KHTML, like Gecko) Chrome/87.0.4280.141 Safari/537.36" etag="t9ZtiW7CqB7Iv4KHvbSo" version="14.2.3" type="github">
  <diagram id="W5cQjT9xa6qqf5-iS4rS" name="Page-1">
    <mxGraphModel dx="2330" dy="997" grid="1" gridSize="10" guides="1" tooltips="1" connect="1" arrows="1" fold="1" page="1" pageScale="1" pageWidth="827" pageHeight="1169" math="0" shadow="0">
      <root>
        <mxCell id="0" />
        <mxCell id="1" parent="0" />
        <mxCell id="MdEkyogkqIb7u_Iy01QY-1" value="開始" style="rounded=1;whiteSpace=wrap;html=1;arcSize=50;fillColor=#e1d5e7;strokeColor=#9673a6;fontSize=19;fontColor=#666666;" vertex="1" parent="1">
          <mxGeometry x="230" y="50" width="160" height="60" as="geometry" />
        </mxCell>
        <mxCell id="MdEkyogkqIb7u_Iy01QY-2" value="詢問要購買&lt;br&gt;哪一種電影票" style="whiteSpace=wrap;html=1;fontSize=15;fontColor=#666666;" vertex="1" parent="1">
          <mxGeometry x="485" y="50" width="140" height="60" as="geometry" />
        </mxCell>
        <mxCell id="MdEkyogkqIb7u_Iy01QY-38" style="edgeStyle=orthogonalEdgeStyle;rounded=0;orthogonalLoop=1;jettySize=auto;html=1;exitX=0.5;exitY=1;exitDx=0;exitDy=0;entryX=0;entryY=0.5;entryDx=0;entryDy=0;fontSize=15;fontColor=#666666;" edge="1" parent="1" source="MdEkyogkqIb7u_Iy01QY-3" target="MdEkyogkqIb7u_Iy01QY-11">
          <mxGeometry relative="1" as="geometry" />
        </mxCell>
        <mxCell id="MdEkyogkqIb7u_Iy01QY-3" value="是否為敬老票" style="rhombus;whiteSpace=wrap;html=1;fontSize=15;fontColor=#666666;" vertex="1" parent="1">
          <mxGeometry x="490" y="155" width="130" height="70" as="geometry" />
        </mxCell>
        <mxCell id="MdEkyogkqIb7u_Iy01QY-4" value="" style="endArrow=classic;html=1;fontSize=15;fontColor=#666666;exitX=1;exitY=0.5;exitDx=0;exitDy=0;" edge="1" parent="1" source="MdEkyogkqIb7u_Iy01QY-1" target="MdEkyogkqIb7u_Iy01QY-2">
          <mxGeometry width="50" height="50" relative="1" as="geometry">
            <mxPoint x="390" y="310" as="sourcePoint" />
            <mxPoint x="440" y="260" as="targetPoint" />
          </mxGeometry>
        </mxCell>
        <mxCell id="MdEkyogkqIb7u_Iy01QY-5" value="" style="endArrow=classic;html=1;fontSize=15;fontColor=#666666;exitX=0.5;exitY=1;exitDx=0;exitDy=0;entryX=0.5;entryY=0;entryDx=0;entryDy=0;" edge="1" parent="1" source="MdEkyogkqIb7u_Iy01QY-2" target="MdEkyogkqIb7u_Iy01QY-3">
          <mxGeometry width="50" height="50" relative="1" as="geometry">
            <mxPoint x="420" y="190" as="sourcePoint" />
            <mxPoint x="490" y="189.5" as="targetPoint" />
          </mxGeometry>
        </mxCell>
        <mxCell id="MdEkyogkqIb7u_Iy01QY-6" value="請客人出示&lt;br&gt;身份證件" style="whiteSpace=wrap;html=1;fontSize=15;fontColor=#666666;" vertex="1" parent="1">
          <mxGeometry x="690" y="160" width="140" height="60" as="geometry" />
        </mxCell>
        <mxCell id="MdEkyogkqIb7u_Iy01QY-7" value="" style="endArrow=classic;html=1;fontSize=15;fontColor=#666666;exitX=1;exitY=0.5;exitDx=0;exitDy=0;" edge="1" parent="1">
          <mxGeometry width="50" height="50" relative="1" as="geometry">
            <mxPoint x="620" y="189.5" as="sourcePoint" />
            <mxPoint x="690" y="189.5" as="targetPoint" />
          </mxGeometry>
        </mxCell>
        <mxCell id="MdEkyogkqIb7u_Iy01QY-63" style="edgeStyle=orthogonalEdgeStyle;rounded=0;orthogonalLoop=1;jettySize=auto;html=1;exitX=1;exitY=0.5;exitDx=0;exitDy=0;entryX=0;entryY=0.5;entryDx=0;entryDy=0;fontSize=15;fontColor=#666666;" edge="1" parent="1" source="MdEkyogkqIb7u_Iy01QY-8" target="MdEkyogkqIb7u_Iy01QY-17">
          <mxGeometry relative="1" as="geometry" />
        </mxCell>
        <mxCell id="MdEkyogkqIb7u_Iy01QY-8" value="證件年齡&lt;br&gt;大於65歲" style="rhombus;whiteSpace=wrap;html=1;fontSize=15;fontColor=#666666;" vertex="1" parent="1">
          <mxGeometry x="900" y="155" width="130" height="70" as="geometry" />
        </mxCell>
        <mxCell id="MdEkyogkqIb7u_Iy01QY-9" value="" style="endArrow=classic;html=1;fontSize=15;fontColor=#666666;exitX=1;exitY=0.5;exitDx=0;exitDy=0;" edge="1" parent="1">
          <mxGeometry width="50" height="50" relative="1" as="geometry">
            <mxPoint x="830" y="189.5" as="sourcePoint" />
            <mxPoint x="900" y="189.5" as="targetPoint" />
          </mxGeometry>
        </mxCell>
        <mxCell id="MdEkyogkqIb7u_Iy01QY-10" value="是" style="text;html=1;strokeColor=none;fillColor=none;align=center;verticalAlign=middle;whiteSpace=wrap;rounded=0;fontSize=15;fontColor=#666666;" vertex="1" parent="1">
          <mxGeometry x="630" y="170" width="40" height="20" as="geometry" />
        </mxCell>
        <mxCell id="MdEkyogkqIb7u_Iy01QY-11" value="確認客人&lt;br&gt;購票入場時間" style="whiteSpace=wrap;html=1;fontSize=15;fontColor=#666666;" vertex="1" parent="1">
          <mxGeometry x="895" y="280" width="140" height="60" as="geometry" />
        </mxCell>
        <mxCell id="MdEkyogkqIb7u_Iy01QY-13" value="是否上午&lt;br&gt;12點前" style="rhombus;whiteSpace=wrap;html=1;fontSize=15;fontColor=#666666;" vertex="1" parent="1">
          <mxGeometry x="900" y="395" width="130" height="70" as="geometry" />
        </mxCell>
        <mxCell id="MdEkyogkqIb7u_Iy01QY-14" value="" style="endArrow=classic;html=1;fontSize=15;fontColor=#666666;exitX=0.5;exitY=1;exitDx=0;exitDy=0;entryX=0.5;entryY=0;entryDx=0;entryDy=0;" edge="1" parent="1" source="MdEkyogkqIb7u_Iy01QY-11" target="MdEkyogkqIb7u_Iy01QY-13">
          <mxGeometry width="50" height="50" relative="1" as="geometry">
            <mxPoint x="1035" y="309.5" as="sourcePoint" />
            <mxPoint x="1105" y="309.5" as="targetPoint" />
          </mxGeometry>
        </mxCell>
        <mxCell id="MdEkyogkqIb7u_Iy01QY-15" value="是" style="text;html=1;strokeColor=none;fillColor=none;align=center;verticalAlign=middle;whiteSpace=wrap;rounded=0;fontSize=15;fontColor=#666666;" vertex="1" parent="1">
          <mxGeometry x="1580" y="520" width="40" height="20" as="geometry" />
        </mxCell>
        <mxCell id="MdEkyogkqIb7u_Iy01QY-16" value="" style="endArrow=classic;html=1;fontSize=15;fontColor=#666666;exitX=0.5;exitY=1;exitDx=0;exitDy=0;entryX=0.5;entryY=0;entryDx=0;entryDy=0;" edge="1" parent="1" source="MdEkyogkqIb7u_Iy01QY-8" target="MdEkyogkqIb7u_Iy01QY-11">
          <mxGeometry width="50" height="50" relative="1" as="geometry">
            <mxPoint x="1380" y="270" as="sourcePoint" />
            <mxPoint x="1305" y="385" as="targetPoint" />
          </mxGeometry>
        </mxCell>
        <mxCell id="MdEkyogkqIb7u_Iy01QY-43" style="edgeStyle=orthogonalEdgeStyle;rounded=0;orthogonalLoop=1;jettySize=auto;html=1;exitX=1;exitY=0.5;exitDx=0;exitDy=0;entryX=0.5;entryY=0;entryDx=0;entryDy=0;fontSize=15;fontColor=#666666;" edge="1" parent="1" source="MdEkyogkqIb7u_Iy01QY-17" target="MdEkyogkqIb7u_Iy01QY-42">
          <mxGeometry relative="1" as="geometry" />
        </mxCell>
        <mxCell id="MdEkyogkqIb7u_Iy01QY-17" value="敬老票" style="whiteSpace=wrap;html=1;fontSize=15;fillColor=#d5e8d4;strokeColor=#82b366;" vertex="1" parent="1">
          <mxGeometry x="1670" y="160" width="140" height="60" as="geometry" />
        </mxCell>
        <mxCell id="MdEkyogkqIb7u_Iy01QY-44" style="edgeStyle=orthogonalEdgeStyle;rounded=0;orthogonalLoop=1;jettySize=auto;html=1;exitX=1;exitY=0.5;exitDx=0;exitDy=0;entryX=0.5;entryY=0;entryDx=0;entryDy=0;fontSize=15;fontColor=#666666;" edge="1" parent="1" source="MdEkyogkqIb7u_Iy01QY-19" target="MdEkyogkqIb7u_Iy01QY-42">
          <mxGeometry relative="1" as="geometry" />
        </mxCell>
        <mxCell id="MdEkyogkqIb7u_Iy01QY-19" value="早場票" style="whiteSpace=wrap;html=1;fontSize=15;fillColor=#d5e8d4;strokeColor=#82b366;" vertex="1" parent="1">
          <mxGeometry x="1670" y="400" width="140" height="60" as="geometry" />
        </mxCell>
        <mxCell id="MdEkyogkqIb7u_Iy01QY-20" value="" style="endArrow=classic;html=1;fontSize=15;fontColor=#666666;exitX=1;exitY=0.5;exitDx=0;exitDy=0;entryX=0;entryY=0.5;entryDx=0;entryDy=0;" edge="1" parent="1" source="MdEkyogkqIb7u_Iy01QY-13" target="MdEkyogkqIb7u_Iy01QY-19">
          <mxGeometry width="50" height="50" relative="1" as="geometry">
            <mxPoint x="1035" y="440" as="sourcePoint" />
            <mxPoint x="1105" y="440" as="targetPoint" />
          </mxGeometry>
        </mxCell>
        <mxCell id="MdEkyogkqIb7u_Iy01QY-21" value="是否為&lt;br&gt;學生、軍警" style="rhombus;whiteSpace=wrap;html=1;fontSize=15;fontColor=#666666;" vertex="1" parent="1">
          <mxGeometry x="900" y="510" width="130" height="70" as="geometry" />
        </mxCell>
        <mxCell id="MdEkyogkqIb7u_Iy01QY-22" value="" style="endArrow=classic;html=1;fontSize=15;fontColor=#666666;exitX=0.5;exitY=1;exitDx=0;exitDy=0;" edge="1" parent="1" source="MdEkyogkqIb7u_Iy01QY-13" target="MdEkyogkqIb7u_Iy01QY-21">
          <mxGeometry width="50" height="50" relative="1" as="geometry">
            <mxPoint x="1045" y="329.5" as="sourcePoint" />
            <mxPoint x="1115" y="329.5" as="targetPoint" />
          </mxGeometry>
        </mxCell>
        <mxCell id="MdEkyogkqIb7u_Iy01QY-48" style="edgeStyle=orthogonalEdgeStyle;rounded=0;orthogonalLoop=1;jettySize=auto;html=1;exitX=1;exitY=0.5;exitDx=0;exitDy=0;entryX=0;entryY=0.5;entryDx=0;entryDy=0;fontSize=15;fontColor=#666666;" edge="1" parent="1" source="MdEkyogkqIb7u_Iy01QY-23" target="MdEkyogkqIb7u_Iy01QY-24">
          <mxGeometry relative="1" as="geometry" />
        </mxCell>
        <mxCell id="MdEkyogkqIb7u_Iy01QY-23" value="請客人出示&lt;br&gt;身份證件" style="whiteSpace=wrap;html=1;fontSize=15;fontColor=#666666;" vertex="1" parent="1">
          <mxGeometry x="1100" y="515" width="140" height="60" as="geometry" />
        </mxCell>
        <mxCell id="MdEkyogkqIb7u_Iy01QY-40" style="edgeStyle=orthogonalEdgeStyle;rounded=0;orthogonalLoop=1;jettySize=auto;html=1;exitX=1;exitY=0.5;exitDx=0;exitDy=0;fontSize=15;fontColor=#666666;" edge="1" parent="1" source="MdEkyogkqIb7u_Iy01QY-24" target="MdEkyogkqIb7u_Iy01QY-27">
          <mxGeometry relative="1" as="geometry" />
        </mxCell>
        <mxCell id="MdEkyogkqIb7u_Iy01QY-50" style="edgeStyle=orthogonalEdgeStyle;rounded=0;orthogonalLoop=1;jettySize=auto;html=1;exitX=0.5;exitY=1;exitDx=0;exitDy=0;entryX=0;entryY=0.5;entryDx=0;entryDy=0;fontSize=15;fontColor=#666666;" edge="1" parent="1" source="MdEkyogkqIb7u_Iy01QY-24" target="MdEkyogkqIb7u_Iy01QY-49">
          <mxGeometry relative="1" as="geometry" />
        </mxCell>
        <mxCell id="MdEkyogkqIb7u_Iy01QY-24" value="有無證件" style="rhombus;whiteSpace=wrap;html=1;fontSize=15;fontColor=#666666;" vertex="1" parent="1">
          <mxGeometry x="1420" y="510" width="130" height="70" as="geometry" />
        </mxCell>
        <mxCell id="MdEkyogkqIb7u_Iy01QY-25" value="" style="endArrow=classic;html=1;fontSize=15;fontColor=#666666;exitX=1;exitY=0.5;exitDx=0;exitDy=0;" edge="1" parent="1">
          <mxGeometry width="50" height="50" relative="1" as="geometry">
            <mxPoint x="1030" y="544.5" as="sourcePoint" />
            <mxPoint x="1100" y="544.5" as="targetPoint" />
          </mxGeometry>
        </mxCell>
        <mxCell id="MdEkyogkqIb7u_Iy01QY-45" style="edgeStyle=orthogonalEdgeStyle;rounded=0;orthogonalLoop=1;jettySize=auto;html=1;exitX=1;exitY=0.5;exitDx=0;exitDy=0;fontSize=15;fontColor=#666666;" edge="1" parent="1" source="MdEkyogkqIb7u_Iy01QY-27" target="MdEkyogkqIb7u_Iy01QY-42">
          <mxGeometry relative="1" as="geometry" />
        </mxCell>
        <mxCell id="MdEkyogkqIb7u_Iy01QY-27" value="優待票" style="whiteSpace=wrap;html=1;fontSize=15;fillColor=#d5e8d4;strokeColor=#82b366;" vertex="1" parent="1">
          <mxGeometry x="1670" y="515" width="140" height="60" as="geometry" />
        </mxCell>
        <mxCell id="MdEkyogkqIb7u_Iy01QY-29" value="是否為&lt;br&gt;孩童" style="rhombus;whiteSpace=wrap;html=1;fontSize=15;fontColor=#666666;" vertex="1" parent="1">
          <mxGeometry x="899.75" y="740" width="130" height="70" as="geometry" />
        </mxCell>
        <mxCell id="MdEkyogkqIb7u_Iy01QY-30" value="量身高" style="whiteSpace=wrap;html=1;fontSize=15;fontColor=#666666;" vertex="1" parent="1">
          <mxGeometry x="1099.75" y="745" width="140" height="60" as="geometry" />
        </mxCell>
        <mxCell id="MdEkyogkqIb7u_Iy01QY-47" style="edgeStyle=orthogonalEdgeStyle;rounded=0;orthogonalLoop=1;jettySize=auto;html=1;exitX=0.5;exitY=1;exitDx=0;exitDy=0;entryX=0;entryY=0.5;entryDx=0;entryDy=0;fontSize=15;fontColor=#666666;" edge="1" parent="1" source="MdEkyogkqIb7u_Iy01QY-31" target="MdEkyogkqIb7u_Iy01QY-32">
          <mxGeometry relative="1" as="geometry" />
        </mxCell>
        <mxCell id="MdEkyogkqIb7u_Iy01QY-52" style="edgeStyle=orthogonalEdgeStyle;rounded=0;orthogonalLoop=1;jettySize=auto;html=1;exitX=1;exitY=0.5;exitDx=0;exitDy=0;entryX=0;entryY=0.5;entryDx=0;entryDy=0;fontSize=15;fontColor=#666666;" edge="1" parent="1" source="MdEkyogkqIb7u_Iy01QY-31" target="MdEkyogkqIb7u_Iy01QY-51">
          <mxGeometry relative="1" as="geometry" />
        </mxCell>
        <mxCell id="MdEkyogkqIb7u_Iy01QY-31" value="是否低於&lt;br&gt;110cm" style="rhombus;whiteSpace=wrap;html=1;fontSize=15;fontColor=#666666;" vertex="1" parent="1">
          <mxGeometry x="1310.25" y="740" width="130" height="70" as="geometry" />
        </mxCell>
        <mxCell id="MdEkyogkqIb7u_Iy01QY-46" style="edgeStyle=orthogonalEdgeStyle;rounded=0;orthogonalLoop=1;jettySize=auto;html=1;exitX=1;exitY=0.5;exitDx=0;exitDy=0;entryX=0.5;entryY=0;entryDx=0;entryDy=0;fontSize=15;fontColor=#666666;" edge="1" parent="1" source="MdEkyogkqIb7u_Iy01QY-32" target="MdEkyogkqIb7u_Iy01QY-42">
          <mxGeometry relative="1" as="geometry" />
        </mxCell>
        <mxCell id="MdEkyogkqIb7u_Iy01QY-32" value="全票" style="whiteSpace=wrap;html=1;fontSize=15;fillColor=#d5e8d4;strokeColor=#82b366;" vertex="1" parent="1">
          <mxGeometry x="1670" y="860" width="140" height="60" as="geometry" />
        </mxCell>
        <mxCell id="MdEkyogkqIb7u_Iy01QY-33" value="" style="endArrow=classic;html=1;fontSize=15;fontColor=#666666;exitX=0.5;exitY=1;exitDx=0;exitDy=0;entryX=0.5;entryY=0;entryDx=0;entryDy=0;" edge="1" parent="1" source="MdEkyogkqIb7u_Iy01QY-21" target="MdEkyogkqIb7u_Iy01QY-29">
          <mxGeometry width="50" height="50" relative="1" as="geometry">
            <mxPoint x="975" y="475" as="sourcePoint" />
            <mxPoint x="975" y="520" as="targetPoint" />
          </mxGeometry>
        </mxCell>
        <mxCell id="MdEkyogkqIb7u_Iy01QY-34" value="" style="endArrow=classic;html=1;fontSize=15;fontColor=#666666;entryX=0;entryY=0.5;entryDx=0;entryDy=0;" edge="1" parent="1" source="MdEkyogkqIb7u_Iy01QY-29" target="MdEkyogkqIb7u_Iy01QY-30">
          <mxGeometry width="50" height="50" relative="1" as="geometry">
            <mxPoint x="984.75" y="595" as="sourcePoint" />
            <mxPoint x="984.75" y="640" as="targetPoint" />
          </mxGeometry>
        </mxCell>
        <mxCell id="MdEkyogkqIb7u_Iy01QY-35" value="" style="endArrow=classic;html=1;fontSize=15;fontColor=#666666;exitX=1;exitY=0.5;exitDx=0;exitDy=0;entryX=0;entryY=0.5;entryDx=0;entryDy=0;" edge="1" parent="1" source="MdEkyogkqIb7u_Iy01QY-30" target="MdEkyogkqIb7u_Iy01QY-31">
          <mxGeometry width="50" height="50" relative="1" as="geometry">
            <mxPoint x="994.75" y="605" as="sourcePoint" />
            <mxPoint x="994.75" y="650" as="targetPoint" />
          </mxGeometry>
        </mxCell>
        <mxCell id="MdEkyogkqIb7u_Iy01QY-42" value="結束" style="rounded=1;whiteSpace=wrap;html=1;arcSize=50;fillColor=#e1d5e7;strokeColor=#9673a6;fontSize=19;fontColor=#666666;" vertex="1" parent="1">
          <mxGeometry x="1870" y="960" width="160" height="60" as="geometry" />
        </mxCell>
        <mxCell id="MdEkyogkqIb7u_Iy01QY-54" style="edgeStyle=orthogonalEdgeStyle;rounded=0;orthogonalLoop=1;jettySize=auto;html=1;exitX=1;exitY=0.5;exitDx=0;exitDy=0;fontSize=15;fontColor=#666666;" edge="1" parent="1" source="MdEkyogkqIb7u_Iy01QY-49">
          <mxGeometry relative="1" as="geometry">
            <mxPoint x="1950" y="960" as="targetPoint" />
          </mxGeometry>
        </mxCell>
        <mxCell id="MdEkyogkqIb7u_Iy01QY-49" value="全票" style="whiteSpace=wrap;html=1;fontSize=15;fillColor=#d5e8d4;strokeColor=#82b366;" vertex="1" parent="1">
          <mxGeometry x="1670" y="630" width="140" height="60" as="geometry" />
        </mxCell>
        <mxCell id="MdEkyogkqIb7u_Iy01QY-53" style="edgeStyle=orthogonalEdgeStyle;rounded=0;orthogonalLoop=1;jettySize=auto;html=1;exitX=1;exitY=0.5;exitDx=0;exitDy=0;entryX=0.5;entryY=0;entryDx=0;entryDy=0;fontSize=15;fontColor=#666666;" edge="1" parent="1" source="MdEkyogkqIb7u_Iy01QY-51" target="MdEkyogkqIb7u_Iy01QY-42">
          <mxGeometry relative="1" as="geometry" />
        </mxCell>
        <mxCell id="MdEkyogkqIb7u_Iy01QY-51" value="優待票" style="whiteSpace=wrap;html=1;fontSize=15;fillColor=#d5e8d4;strokeColor=#82b366;" vertex="1" parent="1">
          <mxGeometry x="1670" y="745" width="140" height="60" as="geometry" />
        </mxCell>
        <mxCell id="MdEkyogkqIb7u_Iy01QY-55" value="是" style="text;html=1;strokeColor=none;fillColor=none;align=center;verticalAlign=middle;whiteSpace=wrap;rounded=0;fontSize=15;fontColor=#666666;" vertex="1" parent="1">
          <mxGeometry x="1520" y="750" width="40" height="20" as="geometry" />
        </mxCell>
        <mxCell id="MdEkyogkqIb7u_Iy01QY-56" value="是" style="text;html=1;strokeColor=none;fillColor=none;align=center;verticalAlign=middle;whiteSpace=wrap;rounded=0;fontSize=15;fontColor=#666666;" vertex="1" parent="1">
          <mxGeometry x="1040" y="750" width="40" height="20" as="geometry" />
        </mxCell>
        <mxCell id="MdEkyogkqIb7u_Iy01QY-57" value="是" style="text;html=1;strokeColor=none;fillColor=none;align=center;verticalAlign=middle;whiteSpace=wrap;rounded=0;fontSize=15;fontColor=#666666;" vertex="1" parent="1">
          <mxGeometry x="1040" y="520" width="40" height="20" as="geometry" />
        </mxCell>
        <mxCell id="MdEkyogkqIb7u_Iy01QY-58" value="是" style="text;html=1;strokeColor=none;fillColor=none;align=center;verticalAlign=middle;whiteSpace=wrap;rounded=0;fontSize=15;fontColor=#666666;" vertex="1" parent="1">
          <mxGeometry x="1300" y="410" width="40" height="20" as="geometry" />
        </mxCell>
        <mxCell id="MdEkyogkqIb7u_Iy01QY-59" value="是" style="text;html=1;strokeColor=none;fillColor=none;align=center;verticalAlign=middle;whiteSpace=wrap;rounded=0;fontSize=15;fontColor=#666666;" vertex="1" parent="1">
          <mxGeometry x="1300" y="167" width="40" height="20" as="geometry" />
        </mxCell>
        <mxCell id="MdEkyogkqIb7u_Iy01QY-64" value="否" style="text;html=1;strokeColor=none;fillColor=none;align=center;verticalAlign=middle;whiteSpace=wrap;rounded=0;fontSize=15;fontColor=#666666;" vertex="1" parent="1">
          <mxGeometry x="560" y="260" width="40" height="20" as="geometry" />
        </mxCell>
        <mxCell id="MdEkyogkqIb7u_Iy01QY-66" value="否" style="text;html=1;strokeColor=none;fillColor=none;align=center;verticalAlign=middle;whiteSpace=wrap;rounded=0;fontSize=15;fontColor=#666666;" vertex="1" parent="1">
          <mxGeometry x="970" y="240" width="40" height="20" as="geometry" />
        </mxCell>
        <mxCell id="MdEkyogkqIb7u_Iy01QY-67" value="否" style="text;html=1;strokeColor=none;fillColor=none;align=center;verticalAlign=middle;whiteSpace=wrap;rounded=0;fontSize=15;fontColor=#666666;" vertex="1" parent="1">
          <mxGeometry x="970" y="480" width="40" height="20" as="geometry" />
        </mxCell>
        <mxCell id="MdEkyogkqIb7u_Iy01QY-68" value="否" style="text;html=1;strokeColor=none;fillColor=none;align=center;verticalAlign=middle;whiteSpace=wrap;rounded=0;fontSize=15;fontColor=#666666;" vertex="1" parent="1">
          <mxGeometry x="970" y="650" width="40" height="20" as="geometry" />
        </mxCell>
        <mxCell id="MdEkyogkqIb7u_Iy01QY-69" value="否" style="text;html=1;strokeColor=none;fillColor=none;align=center;verticalAlign=middle;whiteSpace=wrap;rounded=0;fontSize=15;fontColor=#666666;" vertex="1" parent="1">
          <mxGeometry x="1490" y="610" width="40" height="20" as="geometry" />
        </mxCell>
        <mxCell id="MdEkyogkqIb7u_Iy01QY-70" value="否" style="text;html=1;strokeColor=none;fillColor=none;align=center;verticalAlign=middle;whiteSpace=wrap;rounded=0;fontSize=15;fontColor=#666666;" vertex="1" parent="1">
          <mxGeometry x="1380" y="840" width="40" height="20" as="geometry" />
        </mxCell>
      </root>
    </mxGraphModel>
  </diagram>
</mxfile>
